<svg height="512" viewBox="0 0 64 64" width="512" xmlns="http://www.w3.org/2000/svg"><g id="Blue"><path d="m41 53h-18v-35c0-7 9-15 9-15s9 8 9 15z" fill="#7cb8eb"/><path d="m37 47h-10v-18c0-2.761 2.239-9 5-9 2.761 0 5 6.239 5 9z" fill="#cdeef6"/><path d="m32 47h5a4 4 0 0 1 4 4v2a0 0 0 0 1 0 0h-9a0 0 0 0 1 0 0v-6a0 0 0 0 1 0 0z" fill="#7cb8eb"/><path d="m27 53h5v4h-5z" fill="#7cb8eb"/><path d="m32 53h5v4h-5z" fill="#7cb8eb"/><path d="m41 21h6v36h-6z" fill="#cdeef6"/><path d="m17 21h6v36h-6z" fill="#cdeef6"/><path d="m24 61h-8l1-4h6z" fill="#7cb8eb"/><path d="m48 61h-8l1-4h6z" fill="#7cb8eb"/><path d="m32 3a39.826 39.826 0 0 0 -2.976 3.048 3.245 3.245 0 0 0 5.952 0 39.826 39.826 0 0 0 -2.976-3.048z" fill="#7cb8eb"/><path d="m23 21h-6v-3c0-1.657 3-6 3-6s3 4.343 3 6z" fill="#cdeef6"/><path d="m47 21h-6v-3c0-1.657 3-6 3-6s3 4.343 3 6z" fill="#cdeef6"/><path d="m17 21h6v4h-6z" fill="#fff"/><path d="m41 21h6v4h-6z" fill="#fff"/><path d="m41 31h6v4h-6z" fill="#fff"/><path d="m17 31h6v4h-6z" fill="#fff"/><path d="m23 53h-10v-4c0-2.561 1.189-4.189 3-6l11-11v15a4 4 0 0 0 -4 4z" fill="#cdeef6"/><path d="m41 53h10v-4c0-2.561-1.189-4.189-3-6l-11-11v15a4 4 0 0 1 4 4z" fill="#cdeef6"/><path d="m19 44h4v2h-4z" fill="#4f83d1"/><path d="m41 44h4v2h-4z" fill="#4f83d1"/><path d="m33.293 29.707a1.831 1.831 0 0 0 -2.586 0l-1.414-1.414a3.832 3.832 0 0 1 5.414 0z" fill="#4f83d1"/><path d="m35.773 24c-.917-2.138-2.265-4-3.773-4s-2.856 1.862-3.773 4z" fill="#fff"/><path d="m31 31h2v2h-2z" fill="#4f83d1"/><path d="m27 43h10v4h-10z" fill="#fff"/><path d="m38 20.091-2-.182a10.847 10.847 0 0 0 -.913-5.492 10.543 10.543 0 0 0 -1.827-2.74l1.472-1.354a12.558 12.558 0 0 1 2.173 3.26 12.852 12.852 0 0 1 1.095 6.508z" fill="#4f83d1"/><path d="m23 47h9a0 0 0 0 1 0 0v2a4 4 0 0 1 -4 4h-5a0 0 0 0 1 0 0v-6a0 0 0 0 1 0 0z" fill="#7cb8eb" transform="matrix(-1 0 0 -1 55 100)"/><path d="m13 49h10v4h-10z" fill="#7cb8eb"/><path d="m41 49h10v4h-10z" fill="#7cb8eb"/><g fill="#4f83d1"><path d="m13 54h3v2.876l-.97 3.881a1 1 0 0 0 .97 1.243h8a1 1 0 0 0 .97-1.243l-.97-3.881v-2.876h2v3a1 1 0 0 0 1 1h10a1 1 0 0 0 1-1v-3h2v2.876l-.97 3.881a1 1 0 0 0 .97 1.243h8a1 1 0 0 0 .97-1.243l-.97-3.881v-2.876h3a1 1 0 0 0 1-1v-4c0-2.843-1.26-4.674-3.293-6.707l-.707-.707v-23.586c0-1.874-2.646-5.8-3.177-6.568a1.038 1.038 0 0 0 -1.646 0c-.269.389-1.083 1.593-1.819 2.928a24.28 24.28 0 0 0 -4.07-7.1 41.854 41.854 0 0 0 -4.623-5.012 1 1 0 0 0 -1.33 0c-.318.284-6.627 5.968-8.68 12.131-.74-1.344-1.561-2.559-1.832-2.951a1.038 1.038 0 0 0 -1.646 0c-.531.772-3.177 4.698-3.177 6.572v23.586l-.707.707c-2.033 2.033-3.293 3.864-3.293 6.707v4a1 1 0 0 0 1 1zm4.281 6 .5-2h4.438l.5 2zm.719-4v-2h4v2zm13 0h-3v-2h3zm0-4h-7v-1a3 3 0 0 1 3-3h4zm-3-6v-2h8v2zm7.091-21a12.351 12.351 0 0 1 .909 4v13h-8v-13a12.351 12.351 0 0 1 .909-4zm-5.241-2c.674-1.166 1.442-2 2.15-2s1.476.834 2.15 2zm6.15 33h-3v-2h3zm4-4h-7v-4h4a3 3 0 0 1 3 3zm1.281 8 .5-2h4.438l.5 2zm.719-4v-2h4v2zm8-4h-8v-1a4.917 4.917 0 0 0 -.11-1h8.11zm-8-34c0-.662.933-2.474 2-4.179 1.067 1.7 2 3.516 2 4.179v2h-4zm0 4h4v2h-4zm0 4h4v4h-4zm0 6h4v2h-4zm4 4v3.586l-3.586-3.586zm1.293 7.707c1.469 1.469 2.365 2.669 2.622 4.293h-8.935a4.99 4.99 0 0 0 -2.98-1.9v-11.686zm-15.293-39.334c.432.419 1.044 1.036 1.736 1.793a2.224 2.224 0 0 1 -3.471 0c.691-.754 1.305-1.374 1.735-1.793zm-8 13.627c0-3.557 2.594-7.483 4.945-10.315a4.207 4.207 0 0 0 6.112 0c.217.263.436.532.656.813 1.956 2.494 4.287 6.168 4.287 9.502v15.586l-2-2v-2.586c0-2.968-2.329-10-6-10s-6 7.032-6 10v2.586l-2 2zm-6 0c0-.662.933-2.474 2-4.179 1.067 1.7 2 3.516 2 4.179v2h-4zm0 4h4v2h-4zm0 4h4v4h-4zm0 6h4v2h-4zm0 4h3.586l-3.586 3.586zm-1.293 7.707 9.293-9.293v11.686a4.99 4.99 0 0 0 -2.98 1.9h-8.935c.257-1.624 1.153-2.824 2.622-4.293zm-2.707 6.293h8.11a4.917 4.917 0 0 0 -.11 1v1h-8z"/><path d="m19 44h4v2h-4z"/><path d="m41 44h4v2h-4z"/><path d="m33.293 29.707 1.414-1.414a3.832 3.832 0 0 0 -5.414 0l1.414 1.414a1.831 1.831 0 0 1 2.586 0z"/><path d="m31 31h2v2h-2z"/><path d="m36 19.909 2 .182a12.852 12.852 0 0 0 -1.087-6.508 12.558 12.558 0 0 0 -2.173-3.26l-1.472 1.354a10.543 10.543 0 0 1 1.827 2.74 10.847 10.847 0 0 1 .905 5.492z"/></g></g></svg>